{"title":"And.the.Ship.Sails.On.1983.720p.BluRay.x264-HiDt","uid":7144183,"size":7836858629,"categoryP":"video","categoryS":"hd___movies","magnet":"?xt=urn:btih:72675bdefbaf8cfa007bce269898ac9d81d0a9a8&amp;dn=And.the.Ship.Sails.On.1983.720p.BluRay.x264-HiDt&amp;tr=udp%3A%2F%2Ftracker.openbittorrent.com%3A80&amp;tr=udp%3A%2F%2Fopen.demonii.com%3A1337&amp;tr=udp%3A%2F%2Ftracker.coppersurfer.tk%3A6969&amp;tr=udp%3A%2F%2Fexodus.desync.com%3A6969","seeders":2,"leechers":1,"uploader":"rpessoa","files":2,"time":1333098181,"description":"E la nave va (1983)\n\nn July 1914 a luxury liner leaves Italy with the ashes of the famous opera singer Tetua. The boat is filled with her friends, opera singers, actors and all kinds of exotic people. Life is sweet the first days, but on the third day the captain has to save a a large number of Serbian refugees from the sea, refugees who had escaped the first tremors of WWI. Written by Mattias Thuresson &lt;&lt;a class=&quot;__cf_email__&quot; href=&quot;/cdn-cgi/l/email-protection&quot; data-cfemail=&quot;f5989481819c9486db819d80879086869a9bb598979a8dc6c5c5db86829c859b9081db8690&quot;&gt;[email&amp;#160;protected]&lt;/a&gt;&lt;script cf-hash='f9e31' type=&quot;text/javascript&quot;&gt;\n/* &lt;![CDATA[ */!function(){try{var t=&quot;currentScript&quot;in document?document.currentScript:function(){for(var t=document.getElementsByTagName(&quot;script&quot;),e=t.length;e--;)if(t[e].getAttribute(&quot;cf-hash&quot;))return t[e]}();if(t&amp;&amp;t.previousSibling){var e,r,n,i,c=t.previousSibling,a=c.getAttribute(&quot;data-cfemail&quot;);if(a){for(e=&quot;&quot;,r=parseInt(a.substr(0,2),16),n=2;a.length-n;n+=2)i=parseInt(a.substr(n,2),16)^r,e+=String.fromCharCode(i);e=document.createTextNode(e),c.parentNode.replaceChild(e,c)}}}catch(u){}}();/* ]]&gt; */&lt;/script&gt;&gt;\n\nOriginal audio | english subs\n\nGeneral\nComplete name                            :And.the.Ship.Sails.On.1983.720p.BluRay.x264-HiDt.mkv\nFormat                                   : Matroska\nFormat version                           : Version 2\nFile size                                : 7.30 GiB\nDuration                                 : 2h 7mn\nOverall bit rate                         : 8 205 Kbps\nEncoded date                             : UTC 2012-02-11 22:55:22\nWriting application                      : mkvmerge v3.4.0 ('Rapunzel') built on May 15 2010 09:38:20\nWriting library                          : libebml v0.8.0 + libmatroska v0.9.0\n\nVideo\nID                                       : 1\nFormat                                   : AVC\nFormat/Info                              : Advanced Video Codec\nFormat profile                           : &lt;a class=&quot;__cf_email__&quot; href=&quot;/cdn-cgi/l/email-protection&quot; data-cfemail=&quot;d890b1bfb09894ecf6e9&quot;&gt;[email&amp;#160;protected]&lt;/a&gt;&lt;script cf-hash='f9e31' type=&quot;text/javascript&quot;&gt;\n/* &lt;![CDATA[ */!function(){try{var t=&quot;currentScript&quot;in document?document.currentScript:function(){for(var t=document.getElementsByTagName(&quot;script&quot;),e=t.length;e--;)if(t[e].getAttribute(&quot;cf-hash&quot;))return t[e]}();if(t&amp;&amp;t.previousSibling){var e,r,n,i,c=t.previousSibling,a=c.getAttribute(&quot;data-cfemail&quot;);if(a){for(e=&quot;&quot;,r=parseInt(a.substr(0,2),16),n=2;a.length-n;n+=2)i=parseInt(a.substr(n,2),16)^r,e+=String.fromCharCode(i);e=document.createTextNode(e),c.parentNode.replaceChild(e,c)}}}catch(u){}}();/* ]]&gt; */&lt;/script&gt;\nFormat settings, CABAC                   : Yes\nFormat settings, ReFrames                : 9 frames\nCodec ID                                 : V_MPEG4/ISO/AVC\nDuration                                 : 2h 7mn\nBit rate                                 : 7 757 Kbps\nWidth                                    : 1 280 pixels\nHeight                                   : 692 pixels\nDisplay aspect ratio                     : 1.850\nFrame rate                               : 24.000 fps\nColor space                              : YUV\nChroma subsampling                       : 4:2:0\nBit depth                                : 8 bits\nScan type                                : Progressive\nBits/(Pixel*Frame)                       : 0.365\nStream size                              : 6.75 GiB (93%)\nWriting library                          : x264 core 120 r2164 da19765\nLanguage                                 : Italian\nDefault                                  : No\nForced                                   : No\n\nAudio\nID                                       : 2\nFormat                                   : AC-3\nFormat/Info                              : Audio Coding 3\nMode extension                           : CM (complete main)\nCodec ID                                 : A_AC3\nDuration                                 : 2h 7mn\nBit rate mode                            : Constant\nBit rate                                 : 448 Kbps\nChannel(s)                               : 1 channel\nChannel positions                        : Front: C\nSampling rate                            : 48.0 KHz\nBit depth                                : 16 bits\nCompression mode                         : Lossy\nStream size                              : 408 MiB (5%)\nLanguage                                 : Italian\nDefault                                  : Yes\nForced                                   : No","torrent":{"xt":"urn:btih:72675bdefbaf8cfa007bce269898ac9d81d0a9a8","amp;dn":"And.the.Ship.Sails.On.1983.720p.BluRay.x264-HiDt","amp;tr":["udp%3A%2F%2Ftracker.openbittorrent.com%3A80","udp%3A%2F%2Fopen.demonii.com%3A1337","udp%3A%2F%2Ftracker.coppersurfer.tk%3A6969","udp%3A%2F%2Fexodus.desync.com%3A6969"],"infoHash":"72675bdefbaf8cfa007bce269898ac9d81d0a9a8","infoHashBuffer":{"type":"Buffer","data":[114,103,91,222,251,175,140,250,0,123,206,38,152,152,172,157,129,208,169,168]},"announce":[],"urlList":[]}}